Coordinates
version=1
nRows=8
nColumns=36
inDegrees=yes

Units are S.I. units (second, meters, Newtons, ...)
If the header above contains a line with 'inDegrees', this indicates whether rotational values are in degrees (yes) or radians (no).

endheader
time	pelvis_tilt	pelvis_list	pelvis_rotation	pelvis_tx	pelvis_ty	pelvis_tz	hip_flexion_r	hip_adduction_r	hip_rotation_r	knee_angle_r	knee_angle_r_beta	ankle_angle_r	subtalar_angle_r	mtp_angle_r	hip_flexion_l	hip_adduction_l	hip_rotation_l	knee_angle_l	knee_angle_l_beta	ankle_angle_l	subtalar_angle_l	mtp_angle_l	lumbar_extension	lumbar_bending	lumbar_rotation	arm_flex_r	arm_add_r	arm_rot_r	elbow_flex_r	pro_sup_r	arm_flex_l	arm_add_l	arm_rot_l	elbow_flex_l	pro_sup_l
     45.75000000	      0.56877647	      1.89287975	     -0.63852266	      0.96334359	      0.82258250	      0.70171961	     11.06927837	     -4.10266569	     -1.60136461	     63.98558601	      1.11675915	     -9.51792746	    -14.66793459	     -7.49999987	     13.27101386	      5.32451401	      8.06290232	     15.62896005	      0.27277681	      5.65875826	     -9.90822763	     -7.49999987	     -6.03683131	     -1.40367840	      0.12690319	      4.72372909	    -12.38843394	      4.90211131	     16.87744785	     94.23853813	      7.99438506	    -11.08240188	      9.06986579	      9.75011917	     91.27881280
     45.76666670	      1.02417354	      1.34343258	     -0.76810090	      0.95996574	      0.82538469	      0.70009650	     13.03770223	     -3.17790898	     -1.45010313	     64.04073981	      1.11772177	     -6.86516015	    -15.58715141	     -7.49999987	     10.96143311	      4.73093975	      8.39963011	     14.51948144	      0.25341276	      5.69056414	    -10.26664750	     -7.49999987	     -6.56340442	     -0.81344793	     -0.22514485	      4.13359116	    -12.00635687	      5.01279075	     16.15854973	     92.71781110	      8.91982195	    -11.16704085	      9.37794729	      9.68927905	     89.61082794
     45.78333330	      1.26343106	      1.08671946	     -1.03354519	      0.95750006	      0.82590323	      0.69881620	     15.31403193	     -2.50407250	     -1.06729508	     63.25557626	      1.10401808	     -3.75252519	    -16.54028721	     -7.49999987	      8.78167554	      4.39395939	      8.40319892	     13.33425605	      0.23272667	      5.81602354	    -10.32928361	     -7.49999987	     -6.78361289	     -0.61505659	     -0.49520163	      3.47101594	    -11.62787818	      5.19769151	     15.54449995	     90.66266966	      9.82812700	    -11.35933287	      9.43247464	      9.63119404	     87.51786924
     45.80000000	      2.00120729	      0.56452613	     -0.96602882	      0.95662811	      0.82755905	      0.69758976	     16.56000686	     -1.73367147	     -1.18888134	     60.89881405	      1.06288482	     -0.21803476	    -16.27240955	     -7.49999987	      5.85893521	      3.82774587	      8.64360139	     12.03408831	      0.21003446	      6.34129721	     -9.85529978	     -7.49999987	     -7.56378487	      0.05499385	     -1.54702457	      3.13081650	    -11.38299947	      3.44138519	     15.33574468	     98.67505431	     10.07240938	    -11.86102369	      8.38319530	     10.85722554	     93.22190931
     45.81666670	      2.31772829	      0.15814284	     -0.94664105	      0.95594064	      0.82972001	      0.69733664	     17.95768931	     -1.03956813	     -1.16270480	     57.44604552	      1.00262264	      2.18151357	    -16.17537026	     -7.49999987	      3.39445568	      3.35383612	      8.75802637	     10.84632249	      0.18930404	      6.87759339	     -9.41292240	     -7.49999987	     -7.65980763	      0.53108916	     -2.24570583	      2.70235038	    -11.16340713	      3.52781526	     14.75581440	     96.78300023	     10.50217155	    -12.15183972	      8.53326273	     11.24202493	     91.29878224
     45.83333330	      2.66772654	     -0.23327567	     -0.91141302	      0.95443246	      0.83095719	      0.69808367	     18.86963191	     -0.33818643	     -1.07256164	     53.04488953	      0.92580797	      3.19333341	    -16.31578089	     -7.49999987	      0.96288770	      2.87075178	      8.76481494	      9.74038419	      0.17000177	      7.44336768	     -8.89589395	     -7.49999987	     -7.84689507	      0.96388735	     -3.02383057	      2.42236897	    -11.12177035	      4.31967844	     14.48651942	     97.83994654	     10.76024414	    -12.63593009	      8.61585406	     12.01603227	     91.93089087
     45.85000000	      2.66760964	     -0.56848268	     -0.93914420	      0.95201394	      0.83086559	      0.69920308	     19.85020216	      0.31018867	     -0.84822859	     48.18726851	      0.84102649	      3.17000725	    -16.47296768	     -7.49999987	     -0.86506398	      2.41441324	      8.57612582	      8.88549466	      0.15508114	      8.05937777	     -8.27559146	     -7.49999987	     -7.56845069	      1.33379779	     -3.46998726	      2.06513738	    -10.99713308	      4.16805479	     14.13112485	     96.91605772	     11.19837573	    -12.91574030	      8.43855502	     12.34240052	     91.06292757
     45.86666670	      2.88294895	     -0.75484300	     -0.78879042	      0.94890500	      0.83079046	      0.69908427	     20.30588975	      0.65466414	     -0.66805305	     42.97908464	      0.75012654	      2.66710223	    -16.36297857	     -7.49999987	     -2.70094574	      2.11697002	      8.72520783	      8.17427790	      0.14266806	      8.62580356	     -7.91844356	     -7.49999987	     -7.72023696	      1.53482564	     -4.19064650	      2.01905030	    -10.87785271	      4.13283995	     13.96660962	     96.67748801	     11.62635858	    -13.39485834	      8.47494218	     13.15452018	     90.95164421
